<?xml version="1.0" ?><svg height="24px" version="1.1" viewBox="0 0 24 24" width="24px" xmlns="http://www.w3.org/2000/svg" xmlns:sketch="http://www.bohemiancoding.com/sketch/ns" xmlns:xlink="http://www.w3.org/1999/xlink"><title/><desc/><defs/><g fill="none" fill-rule="evenodd" id="miu" stroke="none" stroke-width="1"><g id="Artboard-1" transform="translate(-323.000000, -515.000000)"><g id="slice" transform="translate(215.000000, 119.000000)"/><path d="M331.141755,522.5 C330.635488,518.456868 331.648021,516 331.648021,516 L339.648021,516 C339.648021,516 340.660553,518.456868 340.154287,522.5 C339.648021,526.543132 336.516755,527 336.372061,530 L336.348009,536 C336.348009,536 336.348009,536.475708 336.758739,536.65387 C337.169469,536.832031 339.582591,537.025024 339.582591,537.515198 C339.582591,538.005371 337.541514,538 335.632457,538 C333.723399,538 331.682323,538.005371 331.682323,537.515198 C331.682323,537.025024 334.095445,536.832031 334.506175,536.65387 C334.916905,536.475708 334.916905,536 334.916905,536 L334.916905,529.885191 C334.698962,526.98762 331.641492,526.490991 331.141755,522.5 Z" fill="#000000" id="food-drink-wine-glass-glyph"/></g></g></svg>