<?xml version="1.0" encoding="UTF-8"?>
<!-- Generator: Adobe Illustrator 18.1.1, SVG Export Plug-In . SVG Version: 6.00 Build 0)  -->
<!DOCTYPE svg PUBLIC "-//W3C//DTD SVG 1.1//EN" "http://www.w3.org/Graphics/SVG/1.1/DTD/svg11.dtd">
<svg version="1.1" id="Layer_1" xmlns="http://www.w3.org/2000/svg" xmlns:xlink="http://www.w3.org/1999/xlink" x="0px" y="0px" width="500px" height="500px" viewBox="0 0 500 500" enable-background="new 0 0 500 500" xml:space="preserve">
<g>
	<path fill="#488B17" d="M250,497.6L250,497.6C112.9,497.6,1.5,386.1,1.5,249.1C1.5,112.3,112.5,0.9,249.2,0.5l0.3,0l0.8,0   c136.9,0.2,248.3,111.6,248.3,248.6C498.5,386.1,387.1,497.6,250,497.6L250,497.6z M249.7,20C123.5,20.1,20.9,122.9,20.9,249.1   c0,126.3,102.7,229.1,229,229.1h1.1c125.8-0.6,228-103.2,228-229.1C479.1,122.8,376.3,20,250,20L249.7,20z"/>
</g>
<path fill="#488B17" d="M250,117.9c-72.8,0-132.1,59.3-132.1,132.1c0,72.8,59.2,132.1,132.1,132.1c72.8,0,132.1-59.3,132.1-132.1  C382.1,177.2,322.8,117.9,250,117.9z M266.3,362.1c-3.5,0.5-7.1,0.9-10.7,1v-50.3h41.7C290.1,336.1,279.1,353.9,266.3,362.1z   M202.9,312.8h41.4v50.3c-3.5-0.2-6.9-0.5-10.3-1C221.2,354,210.2,336.1,202.9,312.8z M136.8,255.6h45.9c0.3,16.3,2.2,31.8,5.4,45.9  h-39C142,287.6,137.7,272.1,136.8,255.6z M234,137.9c3.4-0.5,6.8-0.8,10.3-1V188h-41.7C209.9,164.3,221.1,146.1,234,137.9z   M297.6,188h-42v-51.2c3.6,0.2,7.2,0.5,10.7,1.1C279.3,146.2,290.4,164.3,297.6,188z M300.6,199.3c3.3,13.8,5.3,29.1,5.6,45.1h-50.7  v-45.1H300.6z M244.4,199.3v45.1H194c0.4-16,2.4-31.3,5.6-45.1H244.4z M182.7,244.4h-45.9c0.8-16.1,5-31.4,11.9-45.1h39.2  C184.9,213.2,183.1,228.3,182.7,244.4z M194,255.6h50.4v45.9h-44.5C196.5,287.5,194.4,271.9,194,255.6z M255.6,301.5v-45.9h50.7  c-0.4,16.3-2.5,31.9-5.8,45.9H255.6z M317.6,255.6h45.6c-0.8,16.5-5.2,32-12.3,45.9h-38.6C315.3,287.4,317.2,272,317.6,255.6z   M317.6,244.4c-0.3-16-2.2-31.2-5.2-45.1h38.9c6.9,13.7,11.1,28.9,11.9,45.1H317.6z M344.8,188h-35.2c-5.1-18-12.3-33.2-21.1-44.6  C311.7,151.8,331.4,167.7,344.8,188z M212,143.3c-8.8,11.3-16.1,26.7-21.2,44.7h-35.5C168.7,167.5,188.5,151.7,212,143.3z   M155.8,312.8H191c5.1,17.7,12.3,32.7,21,43.9C188.8,348.4,169.2,332.9,155.8,312.8z M288.4,356.6c8.7-11.2,15.8-26.1,20.9-43.8  h34.9C330.9,332.8,311.4,348.3,288.4,356.6z"/>
</svg>